<svg width="3118" height="1949" xmlns="http://www.w3.org/2000/svg" xmlns:xlink="http://www.w3.org/1999/xlink" xml:space="preserve" overflow="hidden"><defs><clipPath id="clip0"><rect x="2207" y="175" width="3118" height="1949"/></clipPath></defs><g clip-path="url(#clip0)" transform="translate(-2207 -175)"><g><path d="M2379 1628.05 5275 1628.05M2379 1529.05 5275 1529.05M2379 1431.05 5275 1431.05M2379 1332.04 5275 1332.04M2379 1233.04 5275 1233.04M2379 1135.04 5275 1135.04M2379 1036.03 5275 1036.03M2379 937.031 5275 937.031M2379 839.028 5275 839.028M2379 740.024 5275 740.024M2379 641.021 5275 641.021M2379 543.018 5275 543.018M2379 444.015 5275 444.015M2379 345 5275 345" stroke="#D9D9D9" stroke-width="2.29167" stroke-linejoin="round" stroke-miterlimit="10" stroke-opacity="0.25098" fill="none"/></g><g><rect x="2396" y="1725" width="128" height="2.00012" fill="#503BD6"/></g><g><rect x="2556" y="1725" width="129" height="2.00012" fill="#503BD6"/></g><g><rect x="2717" y="599" width="129" height="1128" fill="#E97132"/></g><g><rect x="2878" y="1176" width="129" height="551" fill="#D43B95"/></g><g><rect x="3039" y="573" width="129" height="1154" fill="#D43B95"/></g><g><rect x="3200" y="368" width="128" height="1359" fill="#84E291"/></g><g><rect x="3361" y="1725" width="128" height="2.00012" fill="#503BD6"/></g><g><rect x="3521" y="1725" width="129" height="2.00012" fill="#503BD6"/></g><g><rect x="3682" y="599" width="129" height="1128" fill="#E97132"/></g><g><rect x="3843" y="1176" width="129" height="551" fill="#D43B95"/></g><g><rect x="4004" y="620" width="129" height="1107" fill="#D43B95"/></g><g><rect x="4165" y="782" width="128" height="945" fill="#84E291"/></g><g><rect x="4326" y="1725" width="128" height="2.00012" fill="#503BD6"/></g><g><rect x="4486" y="1725" width="129" height="2.00012" fill="#503BD6"/></g><g><rect x="4647" y="618" width="129" height="1109" fill="#E97132"/></g><g><rect x="4808" y="1176" width="129" height="551" fill="#D43B95"/></g><g><rect x="4969" y="600" width="129" height="1127" fill="#D43B95"/></g><g><rect x="5130" y="502" width="128" height="1225" fill="#84E291"/></g><g><path d="M2379.5 1726.5 5274.5 1726.5" stroke="#D9D9D9" stroke-width="3.4375" stroke-linejoin="round" stroke-miterlimit="10" stroke-opacity="0.2" fill="none" fill-rule="evenodd"/></g><g><path d="M2379.5 1726.5 2379.5 2021.5M3344.61 1726.5 3344.61 2021.5M4309.64 1726.5 4309.64 2021.5M5274.5 1726.5 5274.5 2021.5" stroke="#D9D9D9" stroke-width="3.4375" stroke-linejoin="round" stroke-miterlimit="10" stroke-opacity="0.2" fill="none"/></g><g><path d="M2379.5 2021.5 2379.5 2101.5M3344.61 2021.5 3344.61 2101.5M4309.64 2021.5 4309.64 2101.5M5274.5 2021.5 5274.5 2101.5" stroke="#D9D9D9" stroke-width="3.4375" stroke-linejoin="round" stroke-miterlimit="10" stroke-opacity="0.2" fill="none"/></g><g><text fill="#404040" font-family="Calibri,Calibri_MSFontService,sans-serif" font-weight="400" font-size="41" transform="matrix(1 0 0 1 2449.4 1693)">0</text></g><g><text fill="#404040" font-family="Calibri,Calibri_MSFontService,sans-serif" font-weight="400" font-size="41" transform="matrix(1 0 0 1 2610.24 1693)">0</text></g><g><text fill="#404040" font-family="Calibri,Calibri_MSFontService,sans-serif" font-weight="400" font-size="41" transform="matrix(1 0 0 1 2739.74 567)">2752</text></g><g><text fill="#404040" font-family="Calibri,Calibri_MSFontService,sans-serif" font-weight="400" font-size="41" transform="matrix(1 0 0 1 2921.48 1144)">48</text></g><g><text fill="#404040" font-family="Calibri,Calibri_MSFontService,sans-serif" font-weight="400" font-size="41" transform="matrix(1 0 0 1 3061.42 541)">3304</text></g><g><text fill="#404040" font-family="Calibri,Calibri_MSFontService,sans-serif" font-weight="400" font-size="41" transform="matrix(1 0 0 1 3211.81 336)">13928</text></g><g><text fill="#404040" font-family="Calibri,Calibri_MSFontService,sans-serif" font-weight="400" font-size="41" transform="matrix(1 0 0 1 3414.45 1693)">0</text></g><g><text fill="#404040" font-family="Calibri,Calibri_MSFontService,sans-serif" font-weight="400" font-size="41" transform="matrix(1 0 0 1 3575.29 1693)">0</text></g><g><text fill="#404040" font-family="Calibri,Calibri_MSFontService,sans-serif" font-weight="400" font-size="41" transform="matrix(1 0 0 1 3704.78 567)">2752</text></g><g><text fill="#404040" font-family="Calibri,Calibri_MSFontService,sans-serif" font-weight="400" font-size="41" transform="matrix(1 0 0 1 3886.52 1144)">48</text></g><g><text fill="#404040" font-family="Calibri,Calibri_MSFontService,sans-serif" font-weight="400" font-size="41" transform="matrix(1 0 0 1 4026.46 588)">2384</text></g><g><text fill="#404040" font-family="Calibri,Calibri_MSFontService,sans-serif" font-weight="400" font-size="41" transform="matrix(1 0 0 1 4197.75 751)">760</text></g><g><text fill="#404040" font-family="Calibri,Calibri_MSFontService,sans-serif" font-weight="400" font-size="41" transform="matrix(1 0 0 1 4379.49 1693)">0</text></g><g><text fill="#404040" font-family="Calibri,Calibri_MSFontService,sans-serif" font-weight="400" font-size="41" transform="matrix(1 0 0 1 4540.33 1693)">0</text></g><g><text fill="#404040" font-family="Calibri,Calibri_MSFontService,sans-serif" font-weight="400" font-size="41" transform="matrix(1 0 0 1 4669.83 586)">2408</text></g><g><text fill="#404040" font-family="Calibri,Calibri_MSFontService,sans-serif" font-weight="400" font-size="41" transform="matrix(1 0 0 1 4851.57 1144)">48</text></g><g><text fill="#404040" font-family="Calibri,Calibri_MSFontService,sans-serif" font-weight="400" font-size="41" transform="matrix(1 0 0 1 4991.51 568)">2736</text></g><g><text fill="#404040" font-family="Calibri,Calibri_MSFontService,sans-serif" font-weight="400" font-size="41" transform="matrix(1 0 0 1 5152.35 470)">5456</text></g><g><text fill="#595959" font-family="Calibri,Calibri_MSFontService,sans-serif" font-weight="400" font-size="41" transform="matrix(1 0 0 1 2320.27 1738)">1</text></g><g><text fill="#595959" font-family="Calibri,Calibri_MSFontService,sans-serif" font-weight="400" font-size="41" transform="matrix(1 0 0 1 2320.27 1640)">2</text></g><g><text fill="#595959" font-family="Calibri,Calibri_MSFontService,sans-serif" font-weight="400" font-size="41" transform="matrix(1 0 0 1 2320.27 1541)">4</text></g><g><text fill="#595959" font-family="Calibri,Calibri_MSFontService,sans-serif" font-weight="400" font-size="41" transform="matrix(1 0 0 1 2320.27 1442)">8</text></g><g><text fill="#595959" font-family="Calibri,Calibri_MSFontService,sans-serif" font-weight="400" font-size="41" transform="matrix(1 0 0 1 2299.37 1344)">16</text></g><g><text fill="#595959" font-family="Calibri,Calibri_MSFontService,sans-serif" font-weight="400" font-size="41" transform="matrix(1 0 0 1 2299.37 1245)">32</text></g><g><text fill="#595959" font-family="Calibri,Calibri_MSFontService,sans-serif" font-weight="400" font-size="41" transform="matrix(1 0 0 1 2299.37 1146)">64</text></g><g><text fill="#595959" font-family="Calibri,Calibri_MSFontService,sans-serif" font-weight="400" font-size="41" transform="matrix(1 0 0 1 2278.47 1048)">128</text></g><g><text fill="#595959" font-family="Calibri,Calibri_MSFontService,sans-serif" font-weight="400" font-size="41" transform="matrix(1 0 0 1 2278.47 949)">256</text></g><g><text fill="#595959" font-family="Calibri,Calibri_MSFontService,sans-serif" font-weight="400" font-size="41" transform="matrix(1 0 0 1 2278.47 850)">512</text></g><g><text fill="#595959" font-family="Calibri,Calibri_MSFontService,sans-serif" font-weight="400" font-size="41" transform="matrix(1 0 0 1 2257.57 752)">1024</text></g><g><text fill="#595959" font-family="Calibri,Calibri_MSFontService,sans-serif" font-weight="400" font-size="41" transform="matrix(1 0 0 1 2257.57 653)">2048</text></g><g><text fill="#595959" font-family="Calibri,Calibri_MSFontService,sans-serif" font-weight="400" font-size="41" transform="matrix(1 0 0 1 2257.57 554)">4096</text></g><g><text fill="#595959" font-family="Calibri,Calibri_MSFontService,sans-serif" font-weight="400" font-size="41" transform="matrix(1 0 0 1 2257.57 456)">8192</text></g><g><text fill="#595959" font-family="Calibri,Calibri_MSFontService,sans-serif" font-weight="400" font-size="41" transform="matrix(1 0 0 1 2236.67 357)">16384</text></g><g><text fill="#595959" font-family="Calibri,Calibri_MSFontService,sans-serif" font-weight="400" font-size="41" transform="matrix(0.642788 -0.766044 0.766044 0.642788 2275.43 2011)">Validly (exit-early)</text></g><g><text fill="#595959" font-family="Calibri,Calibri_MSFontService,sans-serif" font-weight="400" font-size="41" transform="matrix(0.642788 -0.766044 0.766044 0.642788 2559.36 1864)">Validly</text></g><g><text fill="#595959" font-family="Calibri,Calibri_MSFontService,sans-serif" font-weight="400" font-size="41" transform="matrix(0.642788 -0.766044 0.766044 0.642788 2619.88 1983)">DataAnnotation</text></g><g><text fill="#595959" font-family="Calibri,Calibri_MSFontService,sans-serif" font-weight="400" font-size="41" transform="matrix(0.642788 -0.766044 0.766044 0.642788 2783.29 1980)">Validot (IsValid)</text></g><g><text fill="#595959" font-family="Calibri,Calibri_MSFontService,sans-serif" font-weight="400" font-size="41" transform="matrix(0.642788 -0.766044 0.766044 0.642788 2926.41 2001)">Validot (Validate)</text></g><g><text fill="#595959" font-family="Calibri,Calibri_MSFontService,sans-serif" font-weight="400" font-size="41" transform="matrix(0.642788 -0.766044 0.766044 0.642788 3097.01 1990)">FluentValidation</text></g><g><text fill="#595959" font-family="Calibri,Calibri_MSFontService,sans-serif" font-weight="400" font-size="41" transform="matrix(0.642788 -0.766044 0.766044 0.642788 3240.47 2011)">Validly (exit-early)</text></g><g><text fill="#595959" font-family="Calibri,Calibri_MSFontService,sans-serif" font-weight="400" font-size="41" transform="matrix(0.642788 -0.766044 0.766044 0.642788 3524.4 1864)">Validly</text></g><g><text fill="#595959" font-family="Calibri,Calibri_MSFontService,sans-serif" font-weight="400" font-size="41" transform="matrix(0.642788 -0.766044 0.766044 0.642788 3584.93 1983)">DataAnnotation</text></g><g><text fill="#595959" font-family="Calibri,Calibri_MSFontService,sans-serif" font-weight="400" font-size="41" transform="matrix(0.642788 -0.766044 0.766044 0.642788 3748.33 1980)">Validot (IsValid)</text></g><g><text fill="#595959" font-family="Calibri,Calibri_MSFontService,sans-serif" font-weight="400" font-size="41" transform="matrix(0.642788 -0.766044 0.766044 0.642788 3891.45 2001)">Validot (Validate)</text></g><g><text fill="#595959" font-family="Calibri,Calibri_MSFontService,sans-serif" font-weight="400" font-size="41" transform="matrix(0.642788 -0.766044 0.766044 0.642788 4062.06 1990)">FluentValidation</text></g><g><text fill="#595959" font-family="Calibri,Calibri_MSFontService,sans-serif" font-weight="400" font-size="41" transform="matrix(0.642788 -0.766044 0.766044 0.642788 4205.52 2011)">Validly (exit-early)</text></g><g><text fill="#595959" font-family="Calibri,Calibri_MSFontService,sans-serif" font-weight="400" font-size="41" transform="matrix(0.642788 -0.766044 0.766044 0.642788 4489.45 1864)">Validly</text></g><g><text fill="#595959" font-family="Calibri,Calibri_MSFontService,sans-serif" font-weight="400" font-size="41" transform="matrix(0.642788 -0.766044 0.766044 0.642788 4549.97 1983)">DataAnnotation</text></g><g><text fill="#595959" font-family="Calibri,Calibri_MSFontService,sans-serif" font-weight="400" font-size="41" transform="matrix(0.642788 -0.766044 0.766044 0.642788 4713.38 1980)">Validot (IsValid)</text></g><g><text fill="#595959" font-family="Calibri,Calibri_MSFontService,sans-serif" font-weight="400" font-size="41" transform="matrix(0.642788 -0.766044 0.766044 0.642788 4856.5 2001)">Validot (Validate)</text></g><g><text fill="#595959" font-family="Calibri,Calibri_MSFontService,sans-serif" font-weight="400" font-size="41" transform="matrix(0.642788 -0.766044 0.766044 0.642788 5027.1 1990)">FluentValidation</text></g><g><text fill="#595959" font-family="Calibri,Calibri_MSFontService,sans-serif" font-weight="400" font-size="41" transform="matrix(1 0 0 1 2842.61 2086)">all</text></g><g><text fill="#595959" font-family="Calibri,Calibri_MSFontService,sans-serif" font-weight="400" font-size="41" transform="matrix(1 0 0 1 3784.18 2086)">none</text></g><g><text fill="#595959" font-family="Calibri,Calibri_MSFontService,sans-serif" font-weight="400" font-size="41" transform="matrix(1 0 0 1 4760.07 2086)">one</text></g><g><text fill="#595959" font-family="Calibri,Calibri_MSFontService,sans-serif" font-weight="400" font-size="64" transform="matrix(1 0 0 1 3501.79 271)">.NET 9 </text></g><g><text fill="#595959" font-family="Calibri,Calibri_MSFontService,sans-serif" font-weight="400" font-size="64" transform="matrix(1 0 0 1 3683.52 271)">-</text></g><g><text fill="#595959" font-family="Calibri,Calibri_MSFontService,sans-serif" font-weight="400" font-size="64" transform="matrix(1 0 0 1 3717.67 271)">Memory [B]</text></g></g></svg>