<svg width="3118" height="1949" xmlns="http://www.w3.org/2000/svg" xmlns:xlink="http://www.w3.org/1999/xlink" xml:space="preserve" overflow="hidden"><defs><clipPath id="clip0"><rect x="1511" y="34" width="3118" height="1949"/></clipPath></defs><g clip-path="url(#clip0)" transform="translate(-1511 -34)"><g><path d="M1671 1413.05 4578 1413.05M1671 1240.04 4578 1240.04M1671 1068.04 4578 1068.04M1671 895.029 4578 895.029M1671 722.024 4578 722.024M1671 550.018 4578 550.018M1671 377.012 4578 377.012M1671 204 4578 204" stroke="#D9D9D9" stroke-width="2.29167" stroke-linejoin="round" stroke-miterlimit="10" stroke-opacity="0.25098" fill="none"/></g><g><rect x="1687" y="1427" width="129" height="159" fill="#503BD6"/></g><g><rect x="1849" y="1263" width="129" height="323" fill="#503BD6"/></g><g><rect x="2010" y="695" width="129" height="891" fill="#E97132"/></g><g><rect x="2172" y="1479" width="129" height="107" fill="#D43B95"/></g><g><rect x="2333" y="769" width="129" height="817" fill="#D43B95"/></g><g><rect x="2495" y="328" width="129" height="1258" fill="#84E291"/></g><g><rect x="2656" y="1313" width="129" height="273" fill="#503BD6"/></g><g><rect x="2818" y="1295" width="129" height="291" fill="#503BD6"/></g><g><rect x="2979" y="700" width="130" height="886" fill="#E97132"/></g><g><rect x="3141" y="1105" width="129" height="481" fill="#D43B95"/></g><g><rect x="3302" y="862" width="130" height="724" fill="#D43B95"/></g><g><rect x="3464" y="902" width="129" height="684" fill="#84E291"/></g><g><rect x="3625" y="1436" width="130" height="150" fill="#503BD6"/></g><g><rect x="3787" y="1286" width="129" height="300" fill="#503BD6"/></g><g><rect x="3948" y="703" width="130" height="883" fill="#E97132"/></g><g><rect x="4110" y="1501" width="129" height="84.9999" fill="#D43B95"/></g><g><rect x="4272" y="860" width="129" height="726" fill="#D43B95"/></g><g><rect x="4433" y="567" width="129" height="1019" fill="#84E291"/></g><g><path d="M1670.5 1585.5 4578.5 1585.5" stroke="#D9D9D9" stroke-width="3.4375" stroke-linejoin="round" stroke-miterlimit="10" stroke-opacity="0.2" fill="none" fill-rule="evenodd"/></g><g><path d="M1670.5 1585.5 1670.5 1880.5M2639.59 1585.5 2639.59 1880.5M3609.62 1585.5 3609.62 1880.5M4578.5 1585.5 4578.5 1880.5" stroke="#D9D9D9" stroke-width="3.4375" stroke-linejoin="round" stroke-miterlimit="10" stroke-opacity="0.2" fill="none"/></g><g><path d="M1670.5 1880.5 1670.5 1960.5M2639.59 1880.5 2639.59 1960.5M3609.62 1880.5 3609.62 1960.5M4578.5 1880.5 4578.5 1960.5" stroke="#D9D9D9" stroke-width="3.4375" stroke-linejoin="round" stroke-miterlimit="10" stroke-opacity="0.2" fill="none"/></g><g><text fill="#404040" font-family="Calibri,Calibri_MSFontService,sans-serif" font-weight="400" font-size="41" transform="matrix(1 0 0 1 1730.74 1395)">60</text></g><g><text fill="#404040" font-family="Calibri,Calibri_MSFontService,sans-serif" font-weight="400" font-size="41" transform="matrix(1 0 0 1 1881.83 1231)">117</text></g><g><text fill="#404040" font-family="Calibri,Calibri_MSFontService,sans-serif" font-weight="400" font-size="41" transform="matrix(1 0 0 1 2032.91 663)">1142</text></g><g><text fill="#404040" font-family="Calibri,Calibri_MSFontService,sans-serif" font-weight="400" font-size="41" transform="matrix(1 0 0 1 2215.34 1447)">49</text></g><g><text fill="#404040" font-family="Calibri,Calibri_MSFontService,sans-serif" font-weight="400" font-size="41" transform="matrix(1 0 0 1 2366.43 737)">851</text></g><g><text fill="#404040" font-family="Calibri,Calibri_MSFontService,sans-serif" font-weight="400" font-size="41" transform="matrix(1 0 0 1 2517.51 296)">4988</text></g><g><text fill="#404040" font-family="Calibri,Calibri_MSFontService,sans-serif" font-weight="400" font-size="41" transform="matrix(1 0 0 1 2699.94 1281)">96</text></g><g><text fill="#404040" font-family="Calibri,Calibri_MSFontService,sans-serif" font-weight="400" font-size="41" transform="matrix(1 0 0 1 2851.02 1263)">103</text></g><g><text fill="#404040" font-family="Calibri,Calibri_MSFontService,sans-serif" font-weight="400" font-size="41" transform="matrix(1 0 0 1 3002.11 668)">1119</text></g><g><text fill="#404040" font-family="Calibri,Calibri_MSFontService,sans-serif" font-weight="400" font-size="41" transform="matrix(1 0 0 1 3174.09 1073)">221</text></g><g><text fill="#404040" font-family="Calibri,Calibri_MSFontService,sans-serif" font-weight="400" font-size="41" transform="matrix(1 0 0 1 3335.62 830)">586</text></g><g><text fill="#404040" font-family="Calibri,Calibri_MSFontService,sans-serif" font-weight="400" font-size="41" transform="matrix(1 0 0 1 3497.16 870)">498</text></g><g><text fill="#404040" font-family="Calibri,Calibri_MSFontService,sans-serif" font-weight="400" font-size="41" transform="matrix(1 0 0 1 3669.14 1404)">58</text></g><g><text fill="#404040" font-family="Calibri,Calibri_MSFontService,sans-serif" font-weight="400" font-size="41" transform="matrix(1 0 0 1 3820.22 1254)">107</text></g><g><text fill="#404040" font-family="Calibri,Calibri_MSFontService,sans-serif" font-weight="400" font-size="41" transform="matrix(1 0 0 1 3971.31 671)">1106</text></g><g><text fill="#404040" font-family="Calibri,Calibri_MSFontService,sans-serif" font-weight="400" font-size="41" transform="matrix(1 0 0 1 4153.74 1469)">45</text></g><g><text fill="#404040" font-family="Calibri,Calibri_MSFontService,sans-serif" font-weight="400" font-size="41" transform="matrix(1 0 0 1 4304.82 828)">589</text></g><g><text fill="#404040" font-family="Calibri,Calibri_MSFontService,sans-serif" font-weight="400" font-size="41" transform="matrix(1 0 0 1 4455.91 535)">1913</text></g><g><text fill="#595959" font-family="Calibri,Calibri_MSFontService,sans-serif" font-weight="400" font-size="41" transform="matrix(1 0 0 1 1590.81 1597)">32</text></g><g><text fill="#595959" font-family="Calibri,Calibri_MSFontService,sans-serif" font-weight="400" font-size="41" transform="matrix(1 0 0 1 1590.81 1425)">64</text></g><g><text fill="#595959" font-family="Calibri,Calibri_MSFontService,sans-serif" font-weight="400" font-size="41" transform="matrix(1 0 0 1 1569.91 1252)">128</text></g><g><text fill="#595959" font-family="Calibri,Calibri_MSFontService,sans-serif" font-weight="400" font-size="41" transform="matrix(1 0 0 1 1569.91 1079)">256</text></g><g><text fill="#595959" font-family="Calibri,Calibri_MSFontService,sans-serif" font-weight="400" font-size="41" transform="matrix(1 0 0 1 1569.91 907)">512</text></g><g><text fill="#595959" font-family="Calibri,Calibri_MSFontService,sans-serif" font-weight="400" font-size="41" transform="matrix(1 0 0 1 1549.01 734)">1024</text></g><g><text fill="#595959" font-family="Calibri,Calibri_MSFontService,sans-serif" font-weight="400" font-size="41" transform="matrix(1 0 0 1 1549.01 561)">2048</text></g><g><text fill="#595959" font-family="Calibri,Calibri_MSFontService,sans-serif" font-weight="400" font-size="41" transform="matrix(1 0 0 1 1549.01 389)">4096</text></g><g><text fill="#595959" font-family="Calibri,Calibri_MSFontService,sans-serif" font-weight="400" font-size="41" transform="matrix(1 0 0 1 1549.01 216)">8192</text></g><g><text fill="#595959" font-family="Calibri,Calibri_MSFontService,sans-serif" font-weight="400" font-size="41" transform="matrix(0.642788 -0.766044 0.766044 0.642788 1567.21 1870)">Validly (exit-early)</text></g><g><text fill="#595959" font-family="Calibri,Calibri_MSFontService,sans-serif" font-weight="400" font-size="41" transform="matrix(0.642788 -0.766044 0.766044 0.642788 1851.84 1723)">Validly</text></g><g><text fill="#595959" font-family="Calibri,Calibri_MSFontService,sans-serif" font-weight="400" font-size="41" transform="matrix(0.642788 -0.766044 0.766044 0.642788 1913.05 1842)">DataAnnotation</text></g><g><text fill="#595959" font-family="Calibri,Calibri_MSFontService,sans-serif" font-weight="400" font-size="41" transform="matrix(0.642788 -0.766044 0.766044 0.642788 2077.15 1839)">Validot (IsValid)</text></g><g><text fill="#595959" font-family="Calibri,Calibri_MSFontService,sans-serif" font-weight="400" font-size="41" transform="matrix(0.642788 -0.766044 0.766044 0.642788 2220.96 1860)">Validot (Validate)</text></g><g><text fill="#595959" font-family="Calibri,Calibri_MSFontService,sans-serif" font-weight="400" font-size="41" transform="matrix(0.642788 -0.766044 0.766044 0.642788 2392.26 1849)">FluentValidation</text></g><g><text fill="#595959" font-family="Calibri,Calibri_MSFontService,sans-serif" font-weight="400" font-size="41" transform="matrix(0.642788 -0.766044 0.766044 0.642788 2536.41 1870)">Validly (exit-early)</text></g><g><text fill="#595959" font-family="Calibri,Calibri_MSFontService,sans-serif" font-weight="400" font-size="41" transform="matrix(0.642788 -0.766044 0.766044 0.642788 2821.04 1723)">Validly</text></g><g><text fill="#595959" font-family="Calibri,Calibri_MSFontService,sans-serif" font-weight="400" font-size="41" transform="matrix(0.642788 -0.766044 0.766044 0.642788 2882.25 1842)">DataAnnotation</text></g><g><text fill="#595959" font-family="Calibri,Calibri_MSFontService,sans-serif" font-weight="400" font-size="41" transform="matrix(0.642788 -0.766044 0.766044 0.642788 3046.35 1839)">Validot (IsValid)</text></g><g><text fill="#595959" font-family="Calibri,Calibri_MSFontService,sans-serif" font-weight="400" font-size="41" transform="matrix(0.642788 -0.766044 0.766044 0.642788 3190.16 1860)">Validot (Validate)</text></g><g><text fill="#595959" font-family="Calibri,Calibri_MSFontService,sans-serif" font-weight="400" font-size="41" transform="matrix(0.642788 -0.766044 0.766044 0.642788 3361.46 1849)">FluentValidation</text></g><g><text fill="#595959" font-family="Calibri,Calibri_MSFontService,sans-serif" font-weight="400" font-size="41" transform="matrix(0.642788 -0.766044 0.766044 0.642788 3505.61 1870)">Validly (exit-early)</text></g><g><text fill="#595959" font-family="Calibri,Calibri_MSFontService,sans-serif" font-weight="400" font-size="41" transform="matrix(0.642788 -0.766044 0.766044 0.642788 3790.24 1723)">Validly</text></g><g><text fill="#595959" font-family="Calibri,Calibri_MSFontService,sans-serif" font-weight="400" font-size="41" transform="matrix(0.642788 -0.766044 0.766044 0.642788 3851.45 1842)">DataAnnotation</text></g><g><text fill="#595959" font-family="Calibri,Calibri_MSFontService,sans-serif" font-weight="400" font-size="41" transform="matrix(0.642788 -0.766044 0.766044 0.642788 4015.55 1839)">Validot (IsValid)</text></g><g><text fill="#595959" font-family="Calibri,Calibri_MSFontService,sans-serif" font-weight="400" font-size="41" transform="matrix(0.642788 -0.766044 0.766044 0.642788 4159.36 1860)">Validot (Validate)</text></g><g><text fill="#595959" font-family="Calibri,Calibri_MSFontService,sans-serif" font-weight="400" font-size="41" transform="matrix(0.642788 -0.766044 0.766044 0.642788 4330.66 1849)">FluentValidation</text></g><g><text fill="#595959" font-family="Calibri,Calibri_MSFontService,sans-serif" font-weight="400" font-size="41" transform="matrix(1 0 0 1 2136.13 1945)">all</text></g><g><text fill="#595959" font-family="Calibri,Calibri_MSFontService,sans-serif" font-weight="400" font-size="41" transform="matrix(1 0 0 1 3081.86 1945)">none</text></g><g><text fill="#595959" font-family="Calibri,Calibri_MSFontService,sans-serif" font-weight="400" font-size="41" transform="matrix(1 0 0 1 4061.89 1945)">one</text></g><g><text fill="#595959" font-family="Calibri,Calibri_MSFontService,sans-serif" font-weight="400" font-size="64" transform="matrix(1 0 0 1 2816.61 130)">.NET 9.0 </text></g><g><text fill="#595959" font-family="Calibri,Calibri_MSFontService,sans-serif" font-weight="400" font-size="64" transform="matrix(1 0 0 1 3047.06 130)">-</text></g><g><text fill="#595959" font-family="Calibri,Calibri_MSFontService,sans-serif" font-weight="400" font-size="64" transform="matrix(1 0 0 1 3081.2 130)">Time [ns]</text></g></g></svg>